  <svg xmlns="http://www.w3.org/2000/svg" width="50" height="50" viewBox="0 0 50 50" fill="none">
                                <g filter="url(#filter0_bd_796_1773)">
                                <circle cx="25.5" cy="25" r="24.5" stroke="url(#paint0_linear_796_1773)" shape-rendering="crispEdges"/>
                                </g>
                                <path d="M25.5 16H21.5C18.7386 16 16.5 18.2386 16.5 21V29C16.5 31.7614 18.7386 34 21.5 34H29.5C32.2614 34 34.5 31.7614 34.5 29V21C34.5 18.2386 32.2614 16 29.5 16H25.5Z" stroke="#FFF3B5" stroke-width="2" stroke-linecap="round" stroke-linejoin="round"/>
                                <path d="M25.5 21C27.7091 21 29.5 22.7909 29.5 25C29.5 27.2091 27.7091 29 25.5 29C23.2909 29 21.5 27.2091 21.5 25C21.5 22.7909 23.2909 21 25.5 21Z" stroke="#FFF3B5" stroke-width="2" stroke-linecap="round" stroke-linejoin="round"/>
                                <path d="M30.5 21.5C31.3284 21.5 32 20.8284 32 20C32 19.1716 31.3284 18.5 30.5 18.5C29.6716 18.5 29 19.1716 29 20C29 20.8284 29.6716 21.5 30.5 21.5Z" fill="#FFF3B5"/>
                                <defs>
                                <filter id="filter0_bd_796_1773" x="-49.5" y="-50" width="186" height="186" filterUnits="userSpaceOnUse" color-interpolation-filters="sRGB">
                                <feFlood flood-opacity="0" result="BackgroundImageFix"/>
                                <feGaussianBlur in="BackgroundImageFix" stdDeviation="25"/>
                                <feComposite in2="SourceAlpha" operator="in" result="effect1_backgroundBlur_796_1773"/>
                                <feColorMatrix in="SourceAlpha" type="matrix" values="0 0 0 0 0 0 0 0 0 0 0 0 0 0 0 0 0 0 127 0" result="hardAlpha"/>
                                <feOffset dx="46" dy="46"/>
                                <feGaussianBlur stdDeviation="20"/>
                                <feComposite in2="hardAlpha" operator="out"/>
                                <feColorMatrix type="matrix" values="0 0 0 0 0.0173077 0 0 0 0 0.0865384 0 0 0 0 0.09 0 0 0 0.2 0"/>
                                <feBlend mode="normal" in2="effect1_backgroundBlur_796_1773" result="effect2_dropShadow_796_1773"/>
                                <feBlend mode="normal" in="SourceGraphic" in2="effect2_dropShadow_796_1773" result="shape"/>
                                </filter>
                                <linearGradient id="paint0_linear_796_1773" x1="13.5556" y1="-18.0556" x2="53.1738" y2="36.5672" gradientUnits="userSpaceOnUse">
                                <stop stop-color="white"/>
                                <stop offset="0.237864" stop-opacity="0"/>
                                <stop offset="0.472362" stop-color="#FFF3B5"/>
                                <stop offset="0.812781" stop-color="#FFF3B5"/>
                                <stop offset="1" stop-color="#000749" stop-opacity="0"/>
                                </linearGradient>
                                </defs>
                                </svg>