 <svg xmlns="http://www.w3.org/2000/svg" width="50" height="50" viewBox="0 0 50 50"
                                fill="none">
                                <g filter="url(#filter0_bd_651_141)">
                                    <circle cx="25" cy="25" r="24.5" stroke="url(#paint0_linear_651_141)"
                                        shape-rendering="crispEdges" />
                                </g>
                                <path
                                    d="M25 16H21C18.2386 16 16 18.2386 16 21V29C16 31.7614 18.2386 34 21 34H29C31.7614 34 34 31.7614 34 29V21C34 18.2386 31.7614 16 29 16H25Z"
                                    stroke="#228F7E" stroke-width="2" stroke-linecap="round" stroke-linejoin="round" />
                                <path
                                    d="M25 21C27.2091 21 29 22.7909 29 25C29 27.2091 27.2091 29 25 29C22.7909 29 21 27.2091 21 25C21 22.7909 22.7909 21 25 21Z"
                                    stroke="#228F7E" stroke-width="2" stroke-linecap="round" stroke-linejoin="round" />
                                <path
                                    d="M30 21.5C30.8284 21.5 31.5 20.8284 31.5 20C31.5 19.1716 30.8284 18.5 30 18.5C29.1716 18.5 28.5 19.1716 28.5 20C28.5 20.8284 29.1716 21.5 30 21.5Z"
                                    fill="#228F7E" />
                                <defs>
                                    <filter id="filter0_bd_651_141" x="-50" y="-50" width="186" height="186"
                                        filterUnits="userSpaceOnUse" color-interpolation-filters="sRGB">
                                        <feFlood flood-opacity="0" result="BackgroundImageFix" />
                                        <feGaussianBlur in="BackgroundImageFix" stdDeviation="25" />
                                        <feComposite in2="SourceAlpha" operator="in"
                                            result="effect1_backgroundBlur_651_141" />
                                        <feColorMatrix in="SourceAlpha" type="matrix"
                                            values="0 0 0 0 0 0 0 0 0 0 0 0 0 0 0 0 0 0 127 0" result="hardAlpha" />
                                        <feOffset dx="46" dy="46" />
                                        <feGaussianBlur stdDeviation="20" />
                                        <feComposite in2="hardAlpha" operator="out" />
                                        <feColorMatrix type="matrix"
                                            values="0 0 0 0 0.0173077 0 0 0 0 0.0865384 0 0 0 0 0.09 0 0 0 0.2 0" />
                                        <feBlend mode="normal" in2="effect1_backgroundBlur_651_141"
                                            result="effect2_dropShadow_651_141" />
                                        <feBlend mode="normal" in="SourceGraphic" in2="effect2_dropShadow_651_141"
                                            result="shape" />
                                    </filter>
                                    <linearGradient id="paint0_linear_651_141" x1="13.0556" y1="-18.0556" x2="52.6738"
                                        y2="36.5672" gradientUnits="userSpaceOnUse">
                                        <stop stop-color="white" />
                                        <stop offset="0.237864" stop-opacity="0" />
                                        <stop offset="0.472362" stop-color="#1ABB9A" />
                                        <stop offset="0.812781" stop-color="#1ABB9A" />
                                        <stop offset="1" stop-color="#000749" stop-opacity="0" />
                                    </linearGradient>
                                </defs>
                            </svg>